PathFileType	4	(X/Y/Z)	D:\TRACE\v60_Jaco2_6-2-23\JustBodyDRS_Motion1_9-v60.trc
DataRate	CameraRate	NumFrames	NumMarkers	Units	OrigDataRate	OrigDataStartFrame	OrigNumFrames
100.00	100.00	      41	9	mm	100.00	3379	      6756
Frame#	Time	front left toe			Front right toe			aft left toe			aft right toe			Arm			FL body			FR body			AL Body			AR Body			
		X1	Y1	Z1	X2	Y2	Z2	X3	Y3	Z3	X4	Y4	Z4	X5	Y5	Z5	X6	Y6	Z6	X7	Y7	Z7	X8	Y8	Z8	X9	Y9	Z9	

3379	33.780	-228.67108	90.10371	-257.13498	152.94621	19.21928	-260.65466	-223.63474	12.33067	369.07492	151.33188	77.77357	360.67200	-160.97346	1221.48401	-367.80975	-125.25362	590.75531	-392.08521	34.90102	593.19830	-396.23395	-100.28275	545.59320	552.65643	55.51418	541.33691	548.49585	
3380	33.790	-229.41487	102.01689	-258.03284	153.85448	18.92796	-260.70999	-222.65968	12.57552	368.80591	152.96704	89.08481	359.38623	-158.89906	1220.47168	-369.67276	-124.43832	590.03741	-392.61655	35.57544	592.68591	-396.78540	-99.57003	545.38239	552.42389	55.43352	541.48932	547.97083	
3381	33.800	-229.50256	113.48320	-258.50552	154.97292	18.48123	-261.09824	-221.40425	12.59601	368.93680	155.03986	100.64583	358.65982	-157.49611	1219.51990	-370.24466	-123.47919	589.20001	-392.95383	36.43980	591.78705	-397.06534	-98.51431	545.53955	551.87335	57.25458	541.48840	547.66162	
3382	33.810	-228.47842	123.48317	-258.76187	155.93346	18.32256	-261.05411	-220.68440	12.69856	368.73605	156.12859	111.41956	358.03650	-156.75772	1219.42554	-371.41507	-121.91325	587.85431	-393.35919	37.79839	590.61487	-397.65308	-97.28263	546.11835	551.46600	58.21149	541.91058	547.20398	
3383	33.820	-227.38226	132.77559	-258.74768	156.69679	18.03214	-261.07651	-219.77489	12.88210	368.75201	157.46642	121.21087	357.72006	-156.11012	1219.33679	-372.07883	-120.71377	586.97833	-393.51251	38.54083	589.75165	-397.94150	-96.32951	546.54150	551.11383	59.40018	542.42334	546.87616	
3384	33.830	-226.40294	140.60506	-258.88461	157.52393	17.91020	-261.10580	-218.73962	13.01528	368.49554	158.95586	129.88344	356.95370	-155.63007	1218.56873	-373.10770	-119.68280	586.24927	-393.88428	39.89600	588.86627	-398.47534	-95.49552	546.91504	550.69318	59.96770	542.38983	545.77771	
3385	33.840	-225.96935	147.01305	-259.22415	158.62134	17.71645	-261.11166	-217.88898	13.37958	368.47076	161.16872	137.22067	356.11746	-154.60408	1217.25330	-374.38150	-118.70332	585.56854	-394.42938	41.05954	588.38733	-398.79367	-94.60992	547.14764	550.30896	60.28189	542.95050	546.13281	
3386	33.850	-225.54454	151.08200	-259.53668	159.58714	17.40578	-261.18753	-217.43330	13.51989	368.51639	163.83791	142.14838	355.14746	-153.34360	1215.84961	-375.79977	-118.28849	585.08649	-395.15021	42.24308	587.47931	-399.14969	-93.87532	547.47015	549.94000	62.11673	543.09290	545.93091	
3387	33.860	-225.21092	152.99722	-260.05096	160.58855	17.06598	-261.21722	-216.24010	13.56858	368.23730	166.11440	143.67880	354.10135	-151.43790	1214.90869	-377.25632	-116.87852	584.41321	-395.49637	43.65007	586.99835	-399.57394	-92.61236	547.73303	549.69324	62.87037	543.44220	545.52075	
3388	33.870	-224.83701	152.46480	-260.38724	161.24028	16.86868	-261.31860	-215.13593	13.74596	368.35458	168.52768	143.21199	353.90659	-150.21185	1214.80408	-378.64780	-115.59615	584.12427	-395.96771	44.24554	586.53204	-400.01981	-91.46587	547.71625	549.36670	63.90112	543.89136	544.99182	
3389	33.880	-223.27362	148.89642	-260.36298	162.47501	16.90472	-261.32092	-214.42181	14.05394	368.05899	170.46118	140.01070	353.82724	-149.00931	1214.82092	-379.78989	-114.32100	583.74268	-396.40939	45.40014	586.23511	-400.31665	-90.94851	548.51196	548.77527	64.77158	544.40741	544.68591	
3390	33.890	-221.81282	144.30664	-260.54852	163.28267	16.59951	-261.60150	-213.54773	14.25975	367.75284	172.22147	135.72484	353.15137	-147.95328	1214.73035	-380.08475	-113.13650	583.48889	-396.88925	47.28567	585.85840	-400.85464	-89.96191	548.95148	548.38330	64.23796	544.77405	544.23199	
3391	33.900	-220.00096	138.93639	-261.01691	163.84541	16.28878	-261.68857	-212.59323	14.42521	367.86612	173.38834	130.64029	352.92603	-147.37192	1214.47864	-380.65045	-111.47788	583.11078	-397.04254	48.41865	585.64581	-401.19519	-89.23145	549.25543	547.87244	66.46504	544.40442	543.03888	
3392	33.910	-218.28305	132.78371	-261.82108	164.85843	16.05009	-261.72571	-211.86436	14.59436	367.83325	174.32739	124.62186	352.28653	-146.40173	1214.07556	-381.22543	-110.05384	582.69226	-397.54257	49.43173	585.49329	-401.73257	-87.95458	549.28656	547.61505	67.41931	545.27545	543.43866	
3393	33.920	-217.23163	126.51497	-262.89774	165.50856	15.97750	-261.92831	-211.06458	14.78792	367.56055	175.97459	118.14180	351.92358	-145.12598	1213.90283	-381.88626	-109.68172	582.88306	-398.52014	50.28931	585.26917	-401.74927	-86.88071	549.58917	546.91913	68.67431	545.31079	543.05695	
3394	33.930	-216.36613	119.86823	-264.15088	166.53989	15.90511	-261.99680	-210.15318	15.13008	367.37778	176.79738	110.29425	350.90866	-144.09111	1213.82947	-382.83588	-108.74321	582.81360	-398.90594	52.04540	585.17761	-402.51871	-86.39773	549.63324	546.51892	69.35217	545.43402	542.81982	
3395	33.940	-215.69441	112.70130	-265.10883	167.26106	15.52278	-262.09314	-209.65115	15.43347	367.39743	178.34943	102.06104	350.14279	-142.37357	1213.77527	-383.47769	-107.30309	582.57654	-399.24817	52.59738	585.09515	-402.97095	-85.33321	549.68695	546.12378	70.29086	545.54102	542.39905	
3396	33.950	-214.86977	104.88221	-265.95865	168.27699	15.23700	-261.91501	-208.62274	15.30415	367.22144	179.54729	93.79398	349.34171	-141.61276	1213.38525	-384.51529	-105.87499	582.14539	-399.68448	54.48733	584.81238	-403.36624	-84.39168	549.91101	545.83551	71.11535	545.69165	541.95483	
3397	33.960	-214.25851	96.71571	-266.23505	168.87575	15.06490	-262.28717	-207.74994	15.33828	367.14984	180.57091	85.24181	349.15454	-140.03430	1213.17200	-384.71405	-104.72321	581.87921	-400.10080	55.60126	584.47968	-403.66058	-83.72171	549.96973	545.68256	71.63778	545.81311	541.76147	
3398	33.970	-212.98752	87.55424	-266.13739	169.71196	15.00791	-262.39709	-207.02338	15.40794	366.96951	181.49612	76.85704	349.08344	-139.08130	1212.74658	-385.69226	-103.77693	581.65320	-400.34567	56.08018	584.01855	-403.69501	-82.79429	550.43591	544.99329	71.46696	546.00867	541.46362	
3399	33.980	-212.03191	78.33514	-265.56824	170.60622	14.82485	-262.28336	-206.53304	15.91838	366.92520	181.25490	67.92940	349.19638	-137.16609	1212.82410	-385.88309	-101.83047	581.11591	-400.29953	58.03446	583.64795	-404.08362	-82.23485	550.71558	544.77533	73.57583	546.20654	541.22937	
3400	33.990	-211.13516	69.46474	-265.10016	171.17305	14.42982	-262.28281	-205.64497	16.14687	366.59875	182.12132	59.70274	349.72864	-135.82529	1212.94727	-386.00360	-100.87758	580.97131	-400.65927	58.90125	583.55518	-404.37979	-81.31985	550.90735	544.61993	74.47913	546.50360	541.02094	
3401	34.000	-210.30057	61.29623	-264.71146	171.64923	14.26364	-262.43362	-205.03439	16.31563	366.64944	182.60571	51.38670	350.19525	-133.84331	1212.60229	-387.15561	-100.64053	581.20734	-401.37704	59.70572	583.17572	-404.25159	-80.38123	551.08795	544.34515	75.39547	546.50604	540.89331	
3402	34.010	-209.66449	53.14196	-264.52170	172.27191	14.09592	-262.58157	-204.47325	16.39170	366.65613	183.23784	43.54427	350.39224	-132.45970	1212.31470	-387.83932	-99.14357	580.81409	-401.44141	61.41428	582.63257	-404.55630	-79.75528	551.16638	544.08478	75.99773	546.40784	540.74091	
3403	34.020	-208.74448	44.76591	-264.35165	173.17874	13.93301	-262.70837	-203.76366	16.50798	366.64212	184.03743	36.64115	350.90067	-130.18945	1212.01379	-387.36053	-97.59571	580.25684	-401.40320	62.38245	582.43634	-404.89664	-79.07150	551.29248	543.84088	76.38631	546.51459	540.61945	
3404	34.030	-207.78955	37.41563	-263.50708	173.99773	14.11276	-262.69382	-203.15311	16.59128	366.45480	184.41615	30.16938	351.18335	-129.78743	1211.58191	-387.86453	-96.29695	579.95178	-401.64392	63.50573	582.20435	-405.05203	-78.06136	551.13696	543.81598	77.68813	546.53174	540.42047	
3405	34.040	-206.44603	32.48214	-264.19077	174.30479	13.91879	-262.78937	-202.61026	16.98752	366.26624	184.83551	24.06152	351.54816	-128.53271	1211.70215	-388.22174	-95.20085	579.82141	-401.90265	64.43913	582.05511	-405.44226	-77.36006	551.10889	543.54309	78.53561	546.54352	540.21106	
3406	34.050	-204.87679	26.12673	-264.27444	174.89491	13.72794	-262.65170	-202.01917	16.97526	366.25015	186.34825	23.20778	349.28656	-126.36962	1211.77344	-389.35706	-93.99210	579.87439	-402.50195	65.37439	581.41577	-405.54782	-76.85128	551.36823	542.77460	79.01014	546.56958	539.87384	
3407	34.060	-204.20885	19.50918	-264.62793	175.37379	13.57163	-262.37094	-201.34372	17.16803	366.37531	186.75653	20.26587	349.78955	-125.12920	1211.56714	-390.12454	-93.37798	579.44775	-403.21054	67.15179	581.20441	-406.01019	-75.97965	552.13422	542.39673	78.02943	547.26868	539.61664	
3408	34.070	-204.30144	18.41905	-266.92374	175.93860	13.38498	-262.27679	-200.69075	17.40754	366.38113	188.43858	21.40826	349.31628	-122.83939	1211.47705	-390.61371	-91.80576	578.70251	-403.67664	68.32021	580.79712	-406.54025	-75.73404	553.29510	542.09906	79.75809	548.70361	539.06433	
3409	34.080	-203.96686	15.68864	-266.13672	176.71994	13.48049	-262.31601	-199.91228	17.95812	366.21252	188.42998	21.70081	350.14673	-122.33025	1211.42456	-392.56812	-89.89306	578.76807	-404.05823	69.79633	580.60883	-406.64108	-75.16531	554.18945	541.90985	80.38744	549.59442	539.05127	
3410	34.090	-204.12930	16.70880	-266.81424	177.22641	14.31217	-262.99933	-199.65355	19.69895	365.25348	188.73755	21.35971	350.50354	-121.30137	1211.45923	-394.46686	-87.77721	580.12524	-404.16910	71.28377	581.43524	-406.84467	-74.70898	554.60779	541.39349	81.01199	549.97003	538.87122	
3411	34.100	-202.40230	16.44849	-266.00018	174.93683	17.26986	-262.11017	-197.55202	22.00893	365.43405	188.96820	20.71626	349.81653	-120.12315	1211.57104	-396.24527	-86.49451	581.64221	-404.88632	73.28925	583.08954	-407.31879	-74.33751	554.67474	540.68311	81.12140	549.72528	538.42871	
3412	34.110	-201.54645	16.42811	-267.11469	172.78760	21.11690	-258.88196	-194.89351	24.94811	367.27066	189.88092	20.98377	349.47577	-118.24924	1212.17212	-396.66263	-85.70573	582.47589	-406.04825	74.66519	583.90515	-408.19986	-73.71949	554.21606	539.69049	82.29916	549.95959	537.64301	
3413	34.120	-201.55908	16.03653	-267.48413	171.19646	28.56737	-257.17834	-189.90201	31.94617	367.57364	190.40329	21.24569	349.41776	-115.49804	1213.96802	-396.17447	-84.65023	582.55157	-407.12411	75.78811	583.80176	-408.95593	-73.18843	555.57104	538.58429	82.56576	550.59503	536.77533	
3414	34.130	-201.33498	15.48925	-266.92581	171.80656	37.13844	-256.56424	-186.05481	40.13614	367.76587	190.75386	21.34739	349.33554	-113.73460	1214.85986	-394.71613	-83.48141	581.98724	-407.81891	76.73240	583.25519	-409.61801	-72.56982	555.96692	538.19653	83.21642	551.21265	536.15100	
3415	34.140	-200.75572	15.20867	-267.43710	173.29617	47.33887	-257.89426	-183.78513	51.42285	366.32547	191.15402	21.28575	349.51505	-111.84246	1215.35107	-395.87436	-82.74141	581.44281	-408.32407	77.21312	582.57379	-409.99387	-71.31345	556.05518	537.61847	83.68461	551.28784	535.63672	
3416	34.150	-200.13927	15.40631	-266.79718	176.05852	58.59824	-260.26215	-184.46301	62.11676	365.12039	191.91466	21.19081	349.39792	-110.46537	1214.38171	-396.68961	-82.11909	581.29596	-408.68475	78.15704	582.15985	-410.71539	-71.13417	556.51483	537.43665	85.38551	550.93561	535.05444	
3417	34.160	-200.02136	15.15269	-267.21429	178.36282	70.42280	-262.81409	-185.97394	73.95616	362.70477	192.43509	21.09177	349.22235	-105.97689	1213.59766	-395.84537	-81.63297	581.05811	-409.15909	78.96935	581.64233	-411.29510	-68.73171	555.66022	536.61963	87.05537	550.31152	534.71716	
3418	34.170	-199.76869	14.93071	-267.16815	180.88660	81.86228	-265.23331	-186.28976	84.83031	360.78754	192.81621	21.03469	349.12714	-102.19001	1212.30420	-394.11273	-81.02792	580.65082	-409.48511	79.33878	581.06335	-411.90988	-67.66322	555.49731	536.35217	87.84515	549.74158	534.08191	
3419	34.180	-199.29698	14.42221	-267.25720	182.29857	92.73546	-267.69687	-187.36644	96.86478	358.17914	193.25465	21.07739	349.20422	-106.99586	1211.27185	-401.42053	-79.85259	579.56232	-409.66873	80.01636	579.73236	-412.32135	-66.25359	555.10590	536.05255	89.50502	549.60138	533.55145	
